<svg xmlns="http://www.w3.org/2000/svg"  viewBox="0 0 64 64" width="48px" height="48px"><path d="M 14 12 C 12.896 12 12 12.896 12 14 L 12 50 C 12 51.104 12.896 52 14 52 L 35.634766 52 C 35.226766 50.739 35 49.396 35 48 L 28 48 L 28 40 L 37 40 L 40 37 L 40 28 L 48 28 L 48 35 C 49.396 35 50.739 35.226766 52 35.634766 L 52 14 C 52 12.896 51.104 12 50 12 L 14 12 z M 16 16 L 24 16 L 24 24 L 16 24 L 16 16 z M 28 16 L 36 16 L 36 24 L 28 24 L 28 16 z M 40 16 L 48 16 L 48 24 L 40 24 L 40 16 z M 16 28 L 24 28 L 24 36 L 16 36 L 16 28 z M 28 28 L 36 28 L 36 36 L 28 36 L 28 28 z M 48 38 C 42.48 38 38 42.48 38 48 C 38 53.52 42.48 58 48 58 C 53.52 58 58 53.52 58 48 C 58 42.48 53.52 38 48 38 z M 16 40 L 24 40 L 24 48 L 16 48 L 16 40 z M 47.25 42 C 48.08 42 48.75 42.67 48.75 43.5 L 48.75 48 L 51.150391 49.800781 C 51.810391 50.300781 51.949219 51.240391 51.449219 51.900391 C 51.159219 52.290391 50.71 52.5 50.25 52.5 C 49.94 52.5 49.619609 52.399219 49.349609 52.199219 L 46.349609 49.949219 C 45.969609 49.669219 45.75 49.22 45.75 48.75 L 45.75 43.5 C 45.75 42.67 46.42 42 47.25 42 z"/></svg>